<svg xmlns="http://www.w3.org/2000/svg" width="196" height="127" viewBox="0 0 196 127" fill="none"><path opacity="0.1" d="M190.944 92.1042C186.467 101.262 177.378 107.386 167.958 111.425C155.277 116.864 141.312 119.021 127.54 118.109C125.126 117.949 122.72 117.695 120.32 117.345C111.988 116.139 103.865 113.793 96.1831 110.374C93.9659 109.384 91.7937 108.303 89.6664 107.131C86.1133 105.178 82.7089 102.969 79.4804 100.524C78.6684 99.909 77.8676 99.2785 77.078 98.6324C76.5304 98.1846 75.9879 97.7268 75.437 97.2823C74.2746 96.3449 73.0784 95.4543 71.7441 94.7877C71.3415 94.5864 70.9287 94.4057 70.5075 94.2463C66.2821 92.6522 61.4098 93.2538 57.0109 94.4969C53.665 95.4426 50.4033 96.7376 47.0608 97.6616C45.574 98.0851 44.059 98.4045 42.5271 98.6174C39.1069 99.0468 35.6335 98.7442 32.3411 97.7301L32.0598 97.6432C31.588 97.4962 31.1202 97.3352 30.6564 97.1604L30.375 97.0534C29.9257 96.8819 29.486 96.6975 29.0559 96.5003L28.7745 96.3733C28.3252 96.1662 27.8855 95.9473 27.4553 95.7167C27.3003 95.6365 27.147 95.5496 26.9954 95.4677C24.5479 94.112 22.3232 92.394 20.3979 90.3731C20.3423 90.318 20.2901 90.2611 20.2294 90.206C19.9616 89.9186 19.6988 89.6262 19.4444 89.3271C19.35 89.2168 19.2557 89.1065 19.163 88.9929C18.8609 88.6275 18.5694 88.2538 18.2886 87.8717C18.2465 87.8166 18.2061 87.7598 18.1656 87.7046C17.0152 86.1262 16.0615 84.4156 15.3251 82.61C15.3016 82.5549 15.2797 82.4981 15.2594 82.4429C15.0348 81.8692 14.8298 81.2861 14.6445 80.6935C14.5687 80.4462 14.4962 80.1922 14.4322 79.9449C14.4103 79.8714 14.3901 79.7962 14.3716 79.7227C13.4416 76.0918 13.3354 72.3172 13.3354 68.5643C13.3354 68.1265 13.3354 67.6893 13.3354 67.2526C13.3624 61.1822 13.4568 55.0082 14.3598 49.0213C14.3598 48.9795 14.3716 48.9377 14.3783 48.8976C14.6805 46.8821 15.0917 44.8842 15.6099 42.9124C16.1522 40.8435 16.8453 38.8163 17.6838 36.847C19.7611 32.0013 22.7818 27.5918 26.1362 23.5047C34.5852 13.2203 45.6658 4.58664 58.635 1.35509C72.61 -2.12542 88.1417 1.20972 99.4144 10.1107C102.851 12.8243 105.939 16.0374 109.799 18.1177C113.169 19.929 117.113 20.6792 120.721 19.2539C123.703 18.0759 125.644 17.4911 128.994 17.6699C135.927 18.0589 142.763 19.4789 149.271 21.8823C149.534 21.9775 149.797 22.0761 150.058 22.1747C167.025 28.6127 181.61 41.4036 189.191 57.8404C189.392 58.2748 189.587 58.7126 189.776 59.1537C194.296 69.6253 195.93 81.8982 190.944 92.1042Z" fill="#3B8DBC"></path><path opacity="0.1" d="M21.2675 124.147C29.4816 124.147 36.1405 123.087 36.1405 121.778C36.1405 120.469 29.4816 119.409 21.2675 119.409C13.0534 119.409 6.39453 120.469 6.39453 121.778C6.39453 123.087 13.0534 124.147 21.2675 124.147Z" fill="#3B8DBC"></path><path d="M178.569 18.0042H22.6709C21.5088 18.0042 20.5667 18.9385 20.5667 20.0911V105.868C20.5667 107.02 21.5088 107.955 22.6709 107.955H178.569C179.731 107.955 180.674 107.02 180.674 105.868V20.0911C180.674 18.9385 179.731 18.0042 178.569 18.0042Z" fill="url(#paint0_linear)"></path><path d="M178.333 19.269H22.9253C21.7632 19.269 20.821 20.2034 20.821 21.356V105.568C20.821 106.721 21.7632 107.655 22.9253 107.655H178.333C179.496 107.655 180.438 106.721 180.438 105.568V21.356C180.438 20.2034 179.496 19.269 178.333 19.269Z" fill="white"></path><path d="M178.333 19.269H22.9253C21.7632 19.269 20.821 20.2034 20.821 21.356V105.568C20.821 106.721 21.7632 107.655 22.9253 107.655H178.333C179.496 107.655 180.438 106.721 180.438 105.568V21.356C180.438 20.2034 179.496 19.269 178.333 19.269Z" fill="white"></path><path opacity="0.04" d="M178.333 19.269H22.9253C21.7632 19.269 20.821 20.2034 20.821 21.356V105.568C20.821 106.721 21.7632 107.655 22.9253 107.655H178.333C179.496 107.655 180.438 106.721 180.438 105.568V21.356C180.438 20.2034 179.496 19.269 178.333 19.269Z" fill="white"></path><path d="M179.628 18.2549H21.6317C21.4167 18.2549 21.2106 18.3396 21.0586 18.4903C20.9067 18.641 20.8213 18.8454 20.8213 19.0586V22.4556H180.431V19.0586C180.431 18.8466 180.347 18.6432 180.196 18.4926C180.046 18.3421 179.841 18.2566 179.628 18.2549Z" fill="#5A5773"></path><path d="M24.0087 21.4412C24.6135 21.4412 25.1038 20.955 25.1038 20.3551C25.1038 19.7553 24.6135 19.269 24.0087 19.269C23.4039 19.269 22.9136 19.7553 22.9136 20.3551C22.9136 20.955 23.4039 21.4412 24.0087 21.4412Z" fill="white"></path><path d="M26.9569 21.4412C27.5617 21.4412 28.052 20.955 28.052 20.3551C28.052 19.7553 27.5617 19.269 26.9569 19.269C26.3521 19.269 25.8618 19.7553 25.8618 20.3551C25.8618 20.955 26.3521 21.4412 26.9569 21.4412Z" fill="white"></path><path d="M29.9054 21.4412C30.5102 21.4412 31.0005 20.955 31.0005 20.3551C31.0005 19.7553 30.5102 19.269 29.9054 19.269C29.3006 19.269 28.8103 19.7553 28.8103 20.3551C28.8103 20.955 29.3006 21.4412 29.9054 21.4412Z" fill="white"></path><path opacity="0.2" d="M76.8021 30.3555H33.9673V33.9613H76.8021V30.3555Z" fill="#3B8DBC"></path><path opacity="0.1" d="M167.292 44.814H33.9673V100.282H167.292V44.814Z" fill="#5A5773"></path><path opacity="0.1" d="M112.03 48.4315H109.747V44.0337C109.747 39.0711 105.758 34.9456 100.754 34.8704C99.5475 34.8578 98.3503 35.0822 97.2316 35.5306C96.1128 35.9789 95.0946 36.6425 94.2356 37.4829C93.3767 38.3234 92.6939 39.3241 92.2266 40.4275C91.7594 41.5308 91.5169 42.715 91.5132 43.9117V48.4315H89.2354C88.2288 48.4346 87.2642 48.8326 86.5524 49.5385C85.8406 50.2445 85.4394 51.2011 85.4363 52.1994V70.2821C85.4394 71.2804 85.8406 72.237 86.5524 72.943C87.2642 73.6489 88.2288 74.0469 89.2354 74.05H112.03C113.037 74.0469 114.001 73.6489 114.712 72.9429C115.424 72.2369 115.825 71.2803 115.827 70.2821V52.1994C115.825 51.2012 115.424 50.2446 114.712 49.5386C114.001 48.8326 113.037 48.4346 112.03 48.4315ZM101.964 60.1864V66.6629C101.966 67.0058 101.837 67.3368 101.602 67.5887C101.367 67.8406 101.045 67.9947 100.7 68.0197C100.52 68.028 100.34 68.0001 100.171 67.9375C100.003 67.875 99.8483 67.7791 99.7179 67.6557C99.5875 67.5323 99.4836 67.3839 99.4127 67.2196C99.3418 67.0553 99.3052 66.8784 99.3051 66.6996V60.1831C98.6888 59.885 98.1925 59.3885 97.8973 58.7747C97.6021 58.1608 97.5253 57.4659 97.6796 56.8032C97.8338 56.1406 98.2099 55.5493 98.7466 55.126C99.2832 54.7026 99.9487 54.4721 100.634 54.4721C101.32 54.4721 101.986 54.7026 102.522 55.126C103.059 55.5493 103.435 56.1406 103.589 56.8032C103.743 57.4659 103.667 58.1608 103.372 58.7747C103.076 59.3885 102.58 59.885 101.964 60.1831V60.1864ZM107.092 48.4315H94.1717V43.9117C94.1717 42.2131 94.8521 40.584 96.0631 39.3829C97.2742 38.1819 98.9167 37.5071 100.629 37.5071C102.342 37.5071 103.985 38.1819 105.196 39.3829C106.407 40.584 107.087 42.2131 107.087 43.9117L107.092 48.4315Z" fill="black"></path><path d="M112.03 48.0973H109.747V43.6994C109.747 38.7368 105.758 34.6113 100.754 34.5361C99.5475 34.5236 98.3503 34.7479 97.2316 35.1963C96.1128 35.6447 95.0946 36.3083 94.2356 37.1487C93.3767 37.9891 92.6939 38.9899 92.2266 40.0932C91.7594 41.1966 91.5169 42.3807 91.5132 43.5775V48.0973H89.2354C88.2288 48.1004 87.2642 48.4983 86.5524 49.2043C85.8406 49.9102 85.4394 50.8668 85.4363 51.8652V69.9478C85.4394 70.9462 85.8406 71.9028 86.5524 72.6087C87.2642 73.3147 88.2288 73.7126 89.2354 73.7157H112.03C113.037 73.7126 114.001 73.3146 114.712 72.6086C115.424 71.9026 115.825 70.946 115.827 69.9478V51.8652C115.825 50.867 115.424 49.9104 114.712 49.2044C114.001 48.4984 113.037 48.1004 112.03 48.0973ZM101.964 59.8522V66.3286C101.966 66.6716 101.837 67.0025 101.602 67.2544C101.367 67.5063 101.045 67.6604 100.7 67.6854C100.52 67.6938 100.34 67.6658 100.171 67.6033C100.003 67.5407 99.8483 67.4448 99.7179 67.3214C99.5875 67.198 99.4836 67.0497 99.4127 66.8853C99.3418 66.721 99.3052 66.5441 99.3051 66.3654V59.8488C98.6888 59.5507 98.1925 59.0542 97.8973 58.4404C97.6021 57.8266 97.5253 57.1317 97.6796 56.469C97.8338 55.8063 98.2099 55.2151 98.7466 54.7917C99.2832 54.3684 99.9487 54.1379 100.634 54.1379C101.32 54.1379 101.986 54.3684 102.522 54.7917C103.059 55.2151 103.435 55.8063 103.589 56.469C103.743 57.1317 103.667 57.8266 103.372 58.4404C103.076 59.0542 102.58 59.5507 101.964 59.8488V59.8522ZM107.092 48.0973H94.1717V43.5775C94.1717 41.8789 94.8521 40.2498 96.0631 39.0487C97.2742 37.8476 98.9167 37.1728 100.629 37.1728C102.342 37.1728 103.985 37.8476 105.196 39.0487C106.407 40.2498 107.087 41.8789 107.087 43.5775L107.092 48.0973Z" fill="#3B8DBC"></path><path opacity="0.1" d="M167.292 39.4753H153.797V42.635H167.292V39.4753Z" fill="#5A5773"></path><path d="M168.109 22.8127V25.5242L162.501 28.3206C162.501 28.3206 156.932 24.9793 158.306 23.6497C159.185 22.8084 159.015 20.498 158.778 18.9091C158.64 17.9849 158.479 17.3071 158.479 17.3071C158.479 17.3071 168.483 14.4736 166.971 16.6248C166.465 17.3441 166.426 18.2748 166.595 19.1968C166.938 21.0255 168.109 22.8127 168.109 22.8127Z" fill="#FBBEBE"></path><path d="M152.745 49.3276L152.022 58.1593C152.022 58.1593 150.938 57.185 149.536 55.9165C146.936 53.5647 143.244 50.2016 143.288 50.1122C143.356 49.9749 143.948 41.9627 144.011 39.9487C144.071 38.5192 144.385 37.1114 144.939 35.79C145.071 35.5285 145.442 33.8633 145.598 33.0851C145.651 32.8432 145.684 32.6863 145.684 32.6863L146.897 32.2024C146.897 32.2024 151.951 37.7953 151.951 37.8977C151.951 38.0001 151.606 42.2962 151.606 42.2962L151.248 42.6057L151.092 42.7386C151.092 42.7386 150.85 44.6153 150.679 45.1776C150.508 45.7399 150.692 46.7164 150.712 46.821C150.696 47.1147 150.654 47.4064 150.587 47.6929C150.558 47.803 150.519 47.9103 150.47 48.0133C150.408 48.2041 150.421 48.411 150.505 48.593C150.603 48.8457 150.73 49.0864 150.883 49.3101L152.745 49.3276Z" fill="#3F3D56"></path><path d="M183.378 50.1123C183.431 50.2191 178.04 55.0992 175.704 57.2069L174.644 58.1594L173.928 49.3276H175.785C175.785 49.3276 176.405 48.4405 176.198 48.0307C176.054 47.6487 175.973 47.2461 175.959 46.8385C175.959 46.8385 176.163 45.7487 175.992 45.1842C175.82 44.6197 175.578 42.7452 175.578 42.7452L175.343 42.5447L175.064 42.3027C175.064 42.3027 174.719 38.0067 174.719 37.9043C174.719 37.8019 179.774 32.209 179.774 32.209L180.978 32.6863C180.978 32.6863 181.004 32.8149 181.048 33.0198C181.211 33.763 181.6 35.522 181.734 35.7901C182.287 37.1114 182.601 38.5192 182.661 39.9488C182.719 41.9627 183.308 49.975 183.378 50.1123Z" fill="#3F3D56"></path><path opacity="0.1" d="M166.975 16.6248C166.469 17.3441 166.43 18.2747 166.599 19.1967C165.444 20.0048 164.053 20.4141 162.641 20.3617C161.229 20.3094 159.873 19.7982 158.782 18.9068C158.643 17.9827 158.483 17.3048 158.483 17.3048C158.483 17.3048 168.487 14.4757 166.975 16.6248Z" fill="black"></path><path d="M169.313 13.8436C169.313 15.1067 168.935 16.3414 168.227 17.3916C167.52 18.4418 166.514 19.2604 165.338 19.7437C164.161 20.2271 162.866 20.3536 161.617 20.1071C160.368 19.8607 159.221 19.2525 158.32 18.3594C157.42 17.4662 156.807 16.3283 156.558 15.0895C156.31 13.8507 156.437 12.5666 156.924 11.3997C157.412 10.2328 158.237 9.23535 159.296 8.53362C160.355 7.83189 161.6 7.45735 162.873 7.45735C163.72 7.45331 164.559 7.61573 165.342 7.93524C166.125 8.25475 166.837 8.725 167.436 9.31883C168.034 9.91265 168.509 10.6183 168.831 11.3949C169.153 12.1715 169.317 13.0038 169.313 13.8436Z" fill="#FBBEBE"></path><path opacity="0.1" d="M170.654 24.4561L168.544 61.7165L157.083 59.3298L154.813 44.393L157.061 24.3406L158.754 24.5564L161.738 24.9334L164.694 25.1143L167.898 24.7612L170.654 24.4561Z" fill="black"></path><path d="M170.654 24.7283L168.544 61.9887L157.083 59.6021L154.813 44.6652L157.061 24.615L158.754 24.8286L161.738 25.2057L164.694 25.3866L167.898 25.0335L170.654 24.7283Z" fill="#3B8DBC"></path><path d="M161.232 25.729L165.359 25.8663L164.199 27.4771C164.199 27.4771 164.28 30.7312 164.832 31.6641C165.384 32.597 165.221 47.0085 165.221 47.0085L164.122 49.077L162.243 46.7579L162.267 27.7299L161.232 25.729Z" fill="#3F3D56"></path><path opacity="0.1" d="M161.232 25.729L165.359 25.8663L164.199 27.4771C164.199 27.4771 164.28 30.7312 164.832 31.6641C165.384 32.597 165.221 47.0085 165.221 47.0085L164.122 49.077L162.243 46.7579L162.267 27.7299L161.232 25.729Z" fill="black"></path><path opacity="0.1" d="M167.696 21.5005L163.846 25.7289L166.046 28.0023L169.692 24.4778L167.696 21.5005Z" fill="black"></path><path d="M167.696 21.228L163.846 25.4565L166.046 27.7298L169.692 24.2054L167.696 21.228Z" fill="#3B8DBC"></path><path opacity="0.1" d="M162.22 25.5241L158.321 21.6597L157.954 23.6823L159.743 28.1157L162.22 25.5241Z" fill="black"></path><path d="M162.355 25.2517L158.459 21.3872L158.092 23.4099L159.881 27.8432L162.355 25.2517Z" fill="#3B8DBC"></path><path opacity="0.1" d="M175.478 69.7222C173.607 70.6064 171.602 71.1814 169.544 71.4245C165.762 71.9018 163.288 67.1285 163.288 67.1285L161.844 68.992C161.384 70.9711 154.394 71.4702 151.552 70.7205C150.962 70.576 150.408 70.3159 149.921 69.9554C149.961 68.9681 149.97 68.1507 149.97 68.1507L155.103 66.2414L161.696 64.1511L167.243 66.7884L175.359 68.3338L175.478 69.7222Z" fill="black"></path><path opacity="0.1" d="M170.653 24.7305L168.546 61.9887L157.083 59.6021L154.808 44.6674L157.054 24.615L158.747 24.833C158.703 25.5634 158.62 26.291 158.498 27.0126C158.224 28.2876 159.92 37.3352 159.92 37.3352C159.92 37.3352 163.144 47.4813 164.595 46.0187C166.045 44.5562 168.111 36.8339 168.111 36.8339C169.511 33.9699 168.135 25.9358 168.032 25.7745C167.96 25.537 167.915 25.292 167.9 25.0444L170.653 24.7305Z" fill="black"></path><path opacity="0.1" d="M175.605 53.5626L175.701 57.2134L174.642 58.1659L173.928 49.3276H175.51L175.605 53.5626Z" fill="black"></path><path opacity="0.1" d="M150.715 46.8276C150.699 47.1213 150.657 47.413 150.589 47.6995C150.589 47.6188 150.589 47.573 150.572 47.5665C150.506 47.5491 150.585 47.2156 150.715 46.8276Z" fill="black"></path><path opacity="0.1" d="M152.745 49.3277L152.022 58.1594C152.022 58.1594 150.938 57.1852 149.536 55.9166L149.703 54.3517C149.703 54.3517 150.294 50.5069 150.51 48.6106C150.607 48.8633 150.734 49.1039 150.888 49.3277H152.745Z" fill="black"></path><path d="M158.963 21.5223C158.963 21.5223 158.277 20.5219 157.336 22.453C157.336 22.453 154.884 23.8632 154.04 24.0223C153.196 24.1815 150.194 25.2277 150.194 25.2277C149.741 25.5527 149.195 25.7274 148.636 25.7268C147.695 25.7268 146.915 27.7735 147.029 28.8872C147.144 30.001 146.961 30.8205 146.091 30.8663C145.221 30.9121 145.7 32.7059 145.7 32.7059L151.499 39.2992C151.499 39.2992 151.866 45.3694 151.684 45.5525C151.502 45.7356 150.836 47.5142 150.996 47.5752C151.156 47.6362 150.117 54.3494 150.117 54.3494L148.719 67.3769C148.719 67.3769 148.719 69.5566 151.563 70.3085C154.407 71.0605 161.402 70.5635 161.852 68.5844L163.296 66.7187C163.296 66.7187 165.771 71.4942 169.553 71.0169C173.335 70.5396 175.744 69.1751 175.744 69.1751L175.331 53.5626L175.056 42.3093L180.961 32.6863C180.961 32.6863 179.379 29.685 179.517 28.3271C179.656 26.9692 179.928 25.9404 176.559 25.4631C176.559 25.4631 173.718 25.0424 172.043 23.8937C171.048 23.2084 169.96 22.6655 168.812 22.2808C168.812 22.2808 167.867 20.5371 167.21 21.1344C167.21 21.1344 167.87 23.5995 167.815 23.9679C167.76 24.3362 167.918 26.0014 168.021 26.1736C168.125 26.3458 169.5 34.3689 168.1 37.2329C168.1 37.2329 166.046 44.9553 164.584 46.4178C163.123 47.8803 159.91 37.7343 159.91 37.7343C159.91 37.7343 158.213 28.6845 158.488 27.4116C158.763 26.1387 158.963 21.5223 158.963 21.5223Z" fill="#3F3D56"></path><path d="M163.867 51.3285C164.424 51.3285 164.876 50.8806 164.876 50.3281C164.876 49.7756 164.424 49.3276 163.867 49.3276C163.31 49.3276 162.858 49.7756 162.858 50.3281C162.858 50.8806 163.31 51.3285 163.867 51.3285Z" fill="#3F3D56"></path><path d="M163.867 56.0453C164.424 56.0453 164.876 55.5974 164.876 55.0449C164.876 54.4923 164.424 54.0444 163.867 54.0444C163.31 54.0444 162.858 54.4923 162.858 55.0449C162.858 55.5974 163.31 56.0453 163.867 56.0453Z" fill="#3F3D56"></path><path opacity="0.1" d="M163.867 51.3285C164.424 51.3285 164.876 50.8806 164.876 50.3281C164.876 49.7756 164.424 49.3276 163.867 49.3276C163.31 49.3276 162.858 49.7756 162.858 50.3281C162.858 50.8806 163.31 51.3285 163.867 51.3285Z" fill="black"></path><path opacity="0.1" d="M163.867 56.0453C164.424 56.0453 164.876 55.5974 164.876 55.0449C164.876 54.4923 164.424 54.0444 163.867 54.0444C163.31 54.0444 162.858 54.4923 162.858 55.0449C162.858 55.5974 163.31 56.0453 163.867 56.0453Z" fill="black"></path><path d="M183.4 125.078C183.077 125.714 180.809 125.296 180.341 125.261C179.872 125.226 176.567 123.576 176.521 123.19C176.475 122.804 175.33 122.009 175.009 122.009C174.688 122.009 173.13 120.78 172.992 120.599C172.956 120.508 172.941 120.412 172.945 120.315C172.897 119.568 172.992 117.643 172.992 117.643L179.639 118.007L182.87 122.826C183.142 123.346 183.339 123.902 183.455 124.476C183.494 124.678 183.475 124.886 183.4 125.078Z" fill="#3F3D56"></path><path d="M151.973 121.1C151.973 121.1 151.033 122.259 149.776 122.349C149.444 122.351 149.126 122.48 148.887 122.708C148.648 122.937 148.507 123.247 148.492 123.576C148.492 123.576 148.712 124.282 145.673 125.261C143.838 125.847 142.684 125.662 142.011 125.261C141.651 125.063 141.378 124.738 141.249 124.35C141.042 123.624 145.099 118.099 145.099 118.099L148.791 117.881L151.428 119.062L151.833 120.559L151.973 121.1Z" fill="#3F3D56"></path><path opacity="0.1" d="M161.232 126.786C180.231 126.786 195.632 125.303 195.632 123.473C195.632 121.644 180.231 120.16 161.232 120.16C142.234 120.16 126.833 121.644 126.833 123.473C126.833 125.303 142.234 126.786 161.232 126.786Z" fill="#3B8DBC"></path><path opacity="0.1" d="M183.4 125.078C183.077 125.714 180.809 125.296 180.341 125.261C179.872 125.226 176.567 123.576 176.521 123.19C176.475 122.804 175.33 122.009 175.009 122.009C174.688 122.009 173.13 120.78 172.992 120.599C172.956 120.508 172.941 120.412 172.945 120.315C172.897 119.568 172.992 117.643 172.992 117.643L179.639 118.007L182.87 122.826C183.142 123.346 183.339 123.902 183.455 124.476C183.494 124.678 183.475 124.886 183.4 125.078Z" fill="black"></path><path opacity="0.1" d="M183.4 125.078C183.077 125.714 180.809 125.296 180.34 125.261C179.872 125.226 176.567 123.576 176.521 123.19C176.475 122.804 175.33 122.009 175.009 122.009C174.688 122.009 173.13 120.779 172.992 120.599C172.956 120.508 172.941 120.412 172.945 120.315L175.099 121.667C175.099 121.667 176.475 122.538 176.842 123.055C177.209 123.572 180.101 124.646 180.34 124.668C180.519 124.685 182.417 124.323 183.455 124.476C183.494 124.678 183.475 124.886 183.4 125.078Z" fill="black"></path><path opacity="0.1" d="M151.973 121.1C151.973 121.1 151.033 122.259 149.776 122.349C149.444 122.351 149.126 122.48 148.887 122.708C148.648 122.937 148.507 123.247 148.492 123.576C148.492 123.576 148.712 124.282 145.673 125.261C143.838 125.847 142.684 125.662 142.011 125.261C141.651 125.063 141.378 124.738 141.249 124.35C141.042 123.624 145.099 118.099 145.099 118.099L148.791 117.881L151.428 119.062L151.833 120.559L151.973 121.1Z" fill="black"></path><path opacity="0.1" d="M151.973 121.1C151.973 121.1 151.033 122.259 149.776 122.349C149.444 122.351 149.126 122.48 148.887 122.708C148.648 122.937 148.507 123.247 148.492 123.576C148.492 123.576 148.712 124.282 145.673 125.261C143.838 125.847 142.684 125.662 142.011 125.261C143.741 125.082 147.563 123.999 147.945 123.624C148.404 123.168 148.978 121.917 149.367 121.895C149.637 121.878 151.011 121.058 151.835 120.551L151.973 121.1Z" fill="black"></path><path d="M180.281 116.03C179.868 116.985 180.281 118.94 180.281 118.94C180.281 118.94 174.128 119.258 172.625 118.258C171.122 117.257 170.058 111.527 170.058 111.527C170.058 111.527 170.278 104.799 170.058 104.48C169.838 104.162 169.003 102.663 169.278 102.344C169.553 102.026 169.058 100.343 168.682 99.6155C168.306 98.8875 168.462 96.7972 168.462 96.7972L167.544 91.248L166.124 84.6568L164.918 80.2453C164.918 80.2453 163.68 76.6533 163.261 75.1537C162.841 73.6542 162.397 75.0164 162.397 75.0164C162.353 76.4724 158.96 83.0199 158.96 83.0199C158.96 83.0199 158.454 86.9759 157.905 88.384C157.356 89.792 156.758 94.7048 156.758 94.7048C156.758 94.7048 155.879 104.707 155.153 106.39C154.428 108.072 153.929 110.572 153.929 110.572C153.929 110.572 154.114 114.029 153.655 114.302C153.195 114.574 153.27 116.667 153.27 116.667C153.27 116.667 153.545 118.665 152.49 118.986C151.435 119.306 151.611 119.986 151.611 119.986C151.611 119.986 145.743 120.941 144.781 118.393C143.818 115.845 145.148 115.167 145.22 114.984C145.293 114.801 146.024 114.485 145.383 113.755C144.741 113.024 146.207 111.028 146.207 111.028C146.207 111.028 146.438 108.21 146.849 108.118C147.259 108.027 147.125 103.935 147.125 103.935L147.583 99.6612C147.583 99.6612 148.18 90.1124 148.042 89.7484C147.903 89.3844 147.996 87.5688 148.455 86.6969C148.914 85.8251 149.279 77.8739 149.279 77.8739C149.279 77.8739 149.187 73.9659 149.554 73.2379C149.774 72.8259 149.866 71.2413 149.919 69.9488C149.958 68.9615 149.967 68.1441 149.967 68.1441L155.101 66.2348L161.694 64.1445L167.241 66.7819L175.357 68.3272L175.458 69.7156L177.007 90.9254L177.886 98.9267C177.886 98.9267 178.253 102.7 178.299 103.382C178.345 104.064 178.802 108.521 178.802 108.521C178.802 108.521 179.765 110.657 179.169 111.385C178.574 112.113 178.802 112.693 178.802 112.693C178.802 112.693 180.695 115.075 180.281 116.03Z" fill="#3F3D56"></path><path opacity="0.1" d="M172.933 114.666C172.933 114.666 177.074 114.984 177.485 115.302C177.896 115.62 172.933 114.666 172.933 114.666Z" fill="black" stroke="#3B8DBC" stroke-miterlimit="10"></path><path opacity="0.1" d="M148.281 111.438C148.281 111.438 149.16 112.528 148.787 113.029C148.413 113.53 148.281 111.438 148.281 111.438Z" fill="black" stroke="#3B8DBC" stroke-miterlimit="10"></path><path opacity="0.1" d="M149.336 115.368C149.336 115.368 150.94 114.321 151.582 115.017C152.224 115.712 149.336 115.368 149.336 115.368Z" fill="black" stroke="#3B8DBC" stroke-miterlimit="10"></path><path opacity="0.1" d="M169.314 13.8435C169.315 14.3884 169.245 14.9312 169.107 15.4586C168.971 15.3973 168.858 15.2964 168.782 15.1694C168.706 15.0424 168.67 14.8954 168.681 14.748C168.709 14.4887 168.883 14.2511 168.845 13.9939C168.791 13.5972 168.307 13.4359 168.052 13.122C167.738 12.7428 167.806 12.1913 167.832 11.7009C167.859 11.2105 167.733 10.6111 167.27 10.4433C167.131 10.3932 166.98 10.3888 166.846 10.3321C166.481 10.1796 166.369 9.73057 166.125 9.42106C165.637 8.7977 164.668 8.81077 163.927 9.1072C163.605 9.26048 163.275 9.39725 162.938 9.51697C162.77 9.57591 162.591 9.59955 162.413 9.58642C162.234 9.57329 162.061 9.52367 161.903 9.44068C161.758 9.34914 161.642 9.22272 161.492 9.13117C160.995 8.83475 160.345 9.13117 159.914 9.5126C159.483 9.89404 159.138 10.4062 158.596 10.6395C158.352 10.7484 158.051 10.8138 157.936 11.0492C157.88 11.1774 157.856 11.3173 157.866 11.4568C157.866 12.3047 157.967 13.1656 157.789 13.9961C157.675 14.5301 157.297 15.136 156.75 15.0706C156.681 15.0606 156.614 15.0438 156.55 15.0205C156.385 14.1475 156.406 13.2501 156.61 12.3855C156.815 11.5209 157.199 10.7082 157.739 9.99924C158.278 9.2903 158.961 8.70071 159.743 8.26816C160.525 7.8356 161.389 7.56957 162.281 7.48708C163.172 7.40459 164.071 7.50745 164.921 7.78907C165.77 8.0707 166.551 8.5249 167.213 9.12268C167.875 9.72045 168.404 10.4486 168.767 11.2608C169.129 12.0729 169.317 12.951 169.318 13.8391L169.314 13.8435Z" fill="black"></path><path d="M156.261 14.6587C156.426 14.6958 156.582 14.7808 156.751 14.8026C157.298 14.868 157.676 14.262 157.79 13.728C157.968 12.8976 157.876 12.0367 157.869 11.1888C157.857 11.0494 157.881 10.9092 157.938 10.7812C158.063 10.5458 158.364 10.4804 158.597 10.3714C159.129 10.136 159.476 9.63473 159.915 9.24458C160.355 8.85443 160.995 8.56672 161.491 8.86315C161.638 8.95034 161.757 9.08111 161.902 9.17265C162.061 9.25446 162.235 9.3034 162.413 9.31652C162.591 9.32963 162.77 9.30664 162.939 9.24894C163.28 9.14868 163.599 8.97213 163.926 8.83917C164.66 8.54274 165.632 8.53185 166.124 9.15085C166.368 9.46254 166.48 9.90936 166.845 10.0619C166.979 10.1186 167.13 10.1251 167.269 10.1753C167.733 10.3475 167.851 10.9425 167.831 11.4329C167.812 11.9233 167.746 12.4748 168.051 12.854C168.306 13.1635 168.79 13.3248 168.845 13.7259C168.88 13.983 168.708 14.2228 168.68 14.48C168.673 14.5756 168.686 14.6715 168.717 14.7622C168.748 14.8529 168.797 14.9366 168.861 15.0084C168.925 15.0801 169.003 15.1386 169.09 15.1804C169.177 15.2221 169.271 15.2463 169.368 15.2516C169.939 15.2516 170.293 14.6173 170.827 14.4146C171.047 14.3296 171.313 14.3165 171.486 14.1443C171.551 14.0616 171.596 13.9659 171.62 13.8639C171.643 13.7619 171.644 13.656 171.622 13.5537C171.515 12.7189 170.84 11.9931 170.913 11.1561C170.981 10.354 171.73 9.65434 171.572 8.86533C171.491 8.57439 171.34 8.30731 171.132 8.0872C170.897 7.77054 170.59 7.51301 170.236 7.33524C169.93 7.20447 169.576 7.17395 169.297 7.01484C168.467 6.56366 168.469 5.38667 167.979 4.58458C167.768 4.2531 167.47 3.98542 167.117 3.81087C166.763 3.63633 166.368 3.56166 165.974 3.59504C165.357 3.65606 164.796 3.98082 164.186 4.0898C163.348 4.23802 162.5 3.96557 161.707 3.65388C160.913 3.3422 160.111 3 159.261 3C158.41 3 157.489 3.43592 157.23 4.23366C157.094 4.66958 157.162 5.13602 157.056 5.57412C156.872 6.35224 156.177 6.90586 155.478 7.29165C154.997 7.55756 154.419 7.86271 154.362 8.40543C154.325 8.74981 154.516 9.05931 154.637 9.39279C154.842 9.95695 154.838 10.5754 154.624 11.1365C154.463 11.5484 154.195 11.9102 154.032 12.32C153.917 12.5981 153.862 12.8973 153.872 13.1979C153.882 13.4985 153.956 13.7936 154.09 14.0637C154.192 14.2606 154.334 14.4347 154.507 14.5752C154.679 14.7158 154.879 14.8199 155.094 14.881C155.527 14.9835 155.799 14.5585 156.261 14.6587Z" fill="#3F3D56"></path><g opacity="0.1"><path opacity="0.1" d="M157.792 13.2529C157.677 13.7869 157.297 14.3929 156.75 14.3275C156.581 14.3057 156.427 14.2207 156.26 14.1836C155.801 14.0834 155.528 14.5106 155.095 14.4016C154.88 14.3404 154.68 14.2364 154.507 14.0959C154.334 13.9553 154.191 13.7812 154.089 13.5842C153.974 13.3624 153.904 13.1202 153.884 12.8715C153.84 13.2574 153.911 13.6476 154.089 13.994C154.191 14.191 154.334 14.3651 154.507 14.5056C154.68 14.6462 154.88 14.7502 155.095 14.8114C155.535 14.9116 155.801 14.4844 156.26 14.5934C156.421 14.6489 156.584 14.6962 156.75 14.7351C157.297 14.8026 157.677 14.1967 157.792 13.6627C157.882 13.1909 157.917 12.7105 157.897 12.2307C157.895 12.574 157.86 12.9163 157.792 13.2529Z" fill="black"></path><path opacity="0.1" d="M154.781 9.9705C154.809 9.61334 154.759 9.25438 154.636 8.91776C154.536 8.69393 154.452 8.46385 154.383 8.229C154.373 8.26562 154.366 8.30272 154.361 8.34016C154.324 8.68236 154.517 8.99404 154.636 9.32752C154.712 9.53456 154.761 9.75077 154.781 9.9705Z" fill="black"></path><path opacity="0.1" d="M171.571 8.82202C171.467 9.44103 170.962 10.023 170.911 10.6747C170.899 10.7862 170.899 10.8988 170.911 11.0103C171.021 10.2497 171.7 9.57617 171.571 8.82202Z" fill="black"></path><path opacity="0.1" d="M171.608 13.4209C171.59 13.512 171.546 13.5964 171.483 13.665C171.32 13.8372 171.043 13.8503 170.824 13.9353C170.29 14.138 169.945 14.7788 169.364 14.7722C169.216 14.7639 169.073 14.7111 168.956 14.6209C168.838 14.5306 168.751 14.4071 168.705 14.2666C168.692 14.3138 168.681 14.3619 168.674 14.4104C168.668 14.5059 168.681 14.6015 168.712 14.692C168.744 14.7824 168.793 14.8659 168.857 14.9374C168.92 15.0089 168.998 15.0672 169.085 15.1088C169.172 15.1504 169.266 15.1746 169.362 15.1798C169.936 15.1798 170.287 14.5456 170.821 14.345C171.041 14.26 171.309 14.247 171.481 14.0748C171.545 13.992 171.591 13.8963 171.614 13.7943C171.638 13.6923 171.639 13.5865 171.617 13.4841C171.615 13.458 171.61 13.4405 171.608 13.4209Z" fill="black"></path><path opacity="0.1" d="M168.852 13.2401C168.797 12.8434 168.313 12.6821 168.058 12.3682C167.902 12.1621 167.817 11.9113 167.816 11.6533C167.799 12.0587 167.805 12.4729 168.058 12.778C168.311 13.0831 168.695 13.2139 168.819 13.5278C168.85 13.4352 168.861 13.3372 168.852 13.2401Z" fill="black"></path><path opacity="0.1" d="M167.831 10.958C167.848 10.4676 167.73 9.86817 167.266 9.70034C167.13 9.65021 166.978 9.64367 166.844 9.58918C166.479 9.4366 166.365 8.98761 166.123 8.6781C165.633 8.05691 164.664 8.06781 163.925 8.36424C163.596 8.49719 163.281 8.67374 162.939 8.774C162.77 8.83294 162.591 8.85659 162.413 8.84346C162.235 8.83033 162.061 8.78071 161.904 8.69772C161.759 8.60617 161.64 8.47975 161.493 8.38821C160.994 8.09178 160.343 8.38821 159.915 8.76964C159.486 9.15107 159.139 9.6611 158.596 9.8965C158.35 10.0055 158.051 10.0709 157.924 10.3063C157.868 10.4346 157.844 10.5745 157.855 10.7139C157.855 10.7989 157.855 10.8839 157.855 10.9689C157.858 10.8811 157.88 10.7949 157.919 10.716C158.047 10.4806 158.346 10.4152 158.592 10.3063C159.124 10.0709 159.471 9.56956 159.91 9.17941C160.35 8.78926 160.989 8.50155 161.488 8.79798C161.635 8.88516 161.754 9.01594 161.899 9.1053C162.057 9.1888 162.23 9.23872 162.409 9.25186C162.587 9.26499 162.766 9.24106 162.934 9.18159C163.27 9.063 163.6 8.92695 163.921 8.774C164.657 8.47758 165.626 8.4645 166.119 9.08569C166.36 9.39519 166.475 9.84419 166.839 9.99676C166.974 10.0534 167.125 10.06 167.261 10.1101C167.637 10.2496 167.787 10.6681 167.82 11.0822L167.831 10.958Z" fill="black"></path></g><g opacity="0.1"><path opacity="0.1" d="M157.006 13.2397C157.019 12.878 157.15 12.53 157.379 12.2482C157.608 11.9664 157.923 11.7659 158.277 11.677C159.257 11.4394 160.285 11.4855 161.239 11.8099C163.325 12.4943 160.975 14.9573 160.975 14.9573C160.975 14.9573 159.413 16.483 157.956 15.4172C157.526 15.0946 157.224 14.6313 157.105 14.1094C157.034 13.8251 157.001 13.5327 157.006 13.2397Z" fill="black"></path><path opacity="0.1" d="M168.472 13.2399C168.459 12.8779 168.328 12.5297 168.098 12.2478C167.869 11.966 167.553 11.7657 167.199 11.6771C166.22 11.44 165.193 11.4861 164.239 11.8101C162.153 12.4945 164.503 14.9574 164.503 14.9574C164.503 14.9574 166.063 16.4832 167.522 15.4173C167.953 15.0947 168.254 14.6315 168.373 14.1096C168.444 13.8253 168.477 13.5329 168.472 13.2399Z" fill="black"></path><path opacity="0.1" d="M160.846 11.6095V11.7119H164.654V11.5898L160.846 11.6095Z" fill="black"></path><path opacity="0.1" d="M162.061 12.7013H162.182V12.3547C162.182 12.3547 162.569 12.0561 163.211 12.3547V12.6642H163.43V12.4615H163.323C163.323 12.4615 163.367 12.0409 162.65 12.1084C162.65 12.1084 162.074 12.0539 162.088 12.4158H161.956L162.061 12.7013Z" fill="black"></path></g><path d="M157.007 13.0982C157.019 12.7364 157.15 12.3885 157.379 12.1067C157.608 11.8249 157.923 11.6244 158.277 11.5354C159.257 11.2994 160.285 11.3456 161.239 11.6684C163.325 12.355 160.975 14.8157 160.975 14.8157C160.975 14.8157 159.413 16.3415 157.956 15.2756C157.525 14.9538 157.223 14.4902 157.105 13.9679C157.034 13.6836 157.001 13.3912 157.007 13.0982Z" fill="#3B8DBC"></path><path d="M168.471 13.0982C168.458 12.7362 168.327 12.388 168.097 12.1062C167.868 11.8243 167.552 11.624 167.198 11.5355C166.219 11.2994 165.192 11.3455 164.238 11.6684C162.152 12.355 164.502 14.8158 164.502 14.8158C164.502 14.8158 166.062 16.3415 167.521 15.2757C167.952 14.9539 168.254 14.4902 168.372 13.9679C168.443 13.6836 168.477 13.3912 168.471 13.0982Z" fill="#3B8DBC"></path><path d="M160.845 11.4723V11.5769H164.654V11.4526L160.845 11.4723Z" fill="#3B8DBC"></path><path d="M162.061 12.5641H162.182V12.2176C162.182 12.2176 162.568 11.9212 163.21 12.2176V12.5293H163.43V12.3244H163.322C163.322 12.3244 163.366 11.9059 162.65 11.9713C162.65 11.9713 162.074 11.919 162.087 12.2786H161.955L162.061 12.5641Z" fill="#3B8DBC"></path><path d="M21.746 76.3926H20.7891V97.7636H21.746V76.3926Z" fill="#535461"></path><path d="M27.7606 97.6983L27.7 98.6608L27.6157 100.019L27.5804 100.586L27.4961 101.946L27.4591 102.512L27.3748 103.871L26.4095 119.322C26.3683 119.987 26.0729 120.611 25.5836 121.067C25.0943 121.524 24.4479 121.778 23.7762 121.778H18.759C18.0875 121.778 17.4413 121.524 16.9522 121.067C16.4632 120.611 16.1682 119.986 16.1274 119.322L15.157 103.871L15.0728 102.512L15.0374 101.946L14.9548 100.582L14.9195 100.016L14.8352 98.6575L14.7746 97.695C14.7631 97.5103 14.7898 97.3252 14.8532 97.1511C14.9166 96.9771 15.0153 96.8177 15.1431 96.6829C15.271 96.5481 15.4253 96.4407 15.5967 96.3674C15.768 96.294 15.9526 96.2562 16.1392 96.2563H26.3977C26.5845 96.2562 26.7694 96.2941 26.9409 96.3677C27.1123 96.4412 27.2667 96.549 27.3945 96.6842C27.5223 96.8193 27.6207 96.9791 27.6837 97.1536C27.7467 97.328 27.7729 97.5134 27.7606 97.6983Z" fill="#3F3D56"></path><path d="M27.6999 98.6609L27.6157 100.019H14.9177L14.8335 98.6609H27.6999Z" fill="#9D9CB5"></path><path d="M27.5803 100.586L27.4961 101.946H15.039L14.9531 100.586H27.5803Z" fill="#9D9CB5"></path><path d="M27.4588 102.512L27.3746 103.871H15.1601L15.0742 102.512H27.4588Z" fill="#9D9CB5"></path><path d="M13.3729 84.4029C18.9461 88.4014 21.2676 94.6573 21.2676 94.6573C21.2676 94.6573 14.5505 94.4284 8.96896 90.4299C3.38738 86.4314 1.07422 80.1755 1.07422 80.1755C1.07422 80.1755 7.79806 80.4045 13.3729 84.4029Z" fill="#3B8DBC"></path><path d="M1.08252 80.1755C1.08252 80.1755 8.05402 84.0186 10.2897 87.1934C12.5253 90.3681 21.2675 94.659 21.2675 94.659" stroke="#535461" stroke-width="2" stroke-miterlimit="10"></path><path d="M16.9697 76.3541C20.0023 78.5263 21.2675 81.9349 21.2675 81.9349C21.2675 81.9349 17.6116 81.8113 14.5774 79.6341C11.5431 77.4569 10.2812 74.0532 10.2812 74.0532C10.2812 74.0532 13.9372 74.1685 16.9697 76.3541Z" fill="#3B8DBC"></path><path d="M10.2812 74.0449C10.2812 74.0449 14.0753 76.1336 15.2917 77.863C16.5081 79.5923 21.2675 81.9266 21.2675 81.9266" stroke="#535461" stroke-width="2" stroke-miterlimit="10"></path><path d="M25.6766 81.7546C22.1908 85.5526 21.4546 90.5152 21.4546 90.5152C21.4546 90.5152 26.3673 89.3205 29.8514 85.5225C33.3355 81.7245 34.0734 76.7603 34.0734 76.7603C34.0734 76.7603 29.1606 77.955 25.6766 81.7546Z" fill="#3B8DBC"></path><path d="M34.0734 76.7603C34.0734 76.7603 29.5347 80.6535 28.3806 83.337C27.2266 86.0205 21.4546 90.5219 21.4546 90.5219" stroke="#535461" stroke-width="2" stroke-miterlimit="10"></path><defs><linearGradient id="paint0_linear" x1="100.619" y1="107.955" x2="100.619" y2="18.0042" gradientUnits="userSpaceOnUse"><stop stop-color="#808080" stop-opacity="0.25"></stop><stop offset="0.54" stop-color="#808080" stop-opacity="0.12"></stop><stop offset="1" stop-color="#808080" stop-opacity="0.1"></stop></linearGradient></defs></svg>